<svg id="Layer_1" data-name="Layer 1" xmlns="http://www.w3.org/2000/svg" viewBox="0 0 1059.1 320"><defs><style>.cls-1{fill:#fff;}</style></defs><path class="cls-1" d="M355,193.43c0-46.89,30.28-83.3,81.95-83.3,23.44,0,48.94,9.78,65.55,28.9L475.59,161.8a54.35,54.35,0,0,0-38.69-15.94c-23,0-42.11,17.53-42.11,47.57,0,26.18,16.16,47.58,43.7,47.58a56.25,56.25,0,0,0,28-7.06V214.83H435.08V183.42h67.83V256c-14.8,11.38-39.38,19.8-64.42,19.8C391.83,275.83,355,246,355,193.43Z"/><path class="cls-1" d="M526.35,162.71h35.51v13h.46c8.65-10,20.48-15,33.46-15,23,0,39.83,11.38,39.83,46.66V274H600.1V216c0-18.44-6.15-23.67-17.75-23.67-12.3,0-20.49,8.42-20.49,25.72v56H526.35Z"/><path class="cls-1" d="M653.36,218.47c0-33.91,24.36-57.81,60.32-57.81,35.05,0,60.09,23.44,60.09,57.81,0,34.15-25,57.59-60.09,57.59C677.72,276.06,653.36,252.16,653.36,218.47Zm84.45,0c0-15.48-10.24-26.17-24.13-26.17-14.34,0-24.35,10.92-24.35,26.17,0,14.8,10.24,26.18,24.35,26.18C727.11,244.65,737.81,233.72,737.81,218.47Z"/><path class="cls-1" d="M784.24,259.67l16.62-23c9.33,8.42,18.89,12.52,29.13,12.52,7.06,0,10.7-2.5,10.7-6.6,0-3.64-3.41-5.92-17.3-10.24-18.66-5.69-35-14.8-35-36.19,0-22.54,18.43-35.51,41.65-35.51,16.85,0,29.14,4.32,42.11,13.88l-16.84,24.81c-7.74-7.74-17.3-11.61-24.81-11.61-4.1,0-8.88,1.83-8.88,6.15,0,3.41,4.1,5.92,15.25,9.79,24.58,8.42,38,14.79,38,36.64,0,20.72-14.79,35.74-45.29,35.74C812,276.06,796.53,270.6,784.24,259.67Z"/><path class="cls-1" d="M890.76,128.34c0-10.93,8.88-20,21.17-20s21.4,8.88,21.4,20c0,11.6-9.11,20.48-21.4,20.48S890.76,139.94,890.76,128.34Zm3.42,34.37h35.51V274H894.18Z"/><path class="cls-1" d="M946.76,259.67l16.61-23c9.33,8.42,18.9,12.52,29.14,12.52,7,0,10.7-2.5,10.7-6.6,0-3.64-3.42-5.92-17.3-10.24-18.67-5.69-35.06-14.8-35.06-36.19,0-22.54,18.44-35.51,41.66-35.51,16.84,0,29.13,4.32,42.11,13.88l-16.85,24.81c-7.74-7.74-17.3-11.61-24.81-11.61-4.09,0-8.87,1.83-8.87,6.15,0,3.41,4.09,5.92,15.25,9.79,24.58,8.42,38,14.79,38,36.64,0,20.72-14.8,35.74-45.3,35.74C974.53,276.06,959.05,270.6,946.76,259.67Z"/><path class="cls-1" d="M100.75,179a38.49,38.49,0,0,0,23.59-8.11L70.09,116.83A38.61,38.61,0,0,0,100.75,179Z"/><path class="cls-1" d="M261.65,140.1a38.47,38.47,0,0,0-8.11-23.59l-54.06,54.25a38.61,38.61,0,0,0,62.17-30.66Z"/><path class="cls-1" d="M288.76,81.16l-23.91,24a54.54,54.54,0,0,1-76.68,77L162,208.4l-26.29-26.2a54.54,54.54,0,0,1-77-76.68L46.4,93.23,34.74,81.61a148.48,148.48,0,1,0,254-.45Z"/><path class="cls-1" d="M269.13,55.64A148.44,148.44,0,0,0,54.28,56a150.69,150.69,0,0,0-10.4,12.17L161.94,185.83,279.57,67.77A148.9,148.9,0,0,0,269.13,55.64ZM161.66,29.25A127.57,127.57,0,0,1,253,66.9l-91.12,91.45L70.44,67.23A127.55,127.55,0,0,1,161.66,29.25Z"/></svg>